<svg width="968" height="420" viewBox="0 0 968 420" fill="none" xmlns="http://www.w3.org/2000/svg">
<path d="M725.25 259.24L727.91 259.3L732.45 259.44L734.61 259.52L738.28 259.74L740.02 259.85L742.97 260.17L744.37 260.34L746.74 260.79L747.87 261.03L749.84 261.64L750.78 261.97L752.48 262.78L753.31 263.22L754.9 264.26L757.34 266.12L758.59 267.16L760.64 269.54L761.59 270.78L763.03 273.49L763.68 274.87L764.52 277.78L764.86 279.25L765.09 282.25L765.12 283.74L764.74 286.7L764.46 288.17L763.46 290.97L762.88 292.35L761.26 294.88L758.12 298.24L755.16 300.74L757.96 302.81L758.73 303.38L760.1 304.85L760.76 305.63L761.89 307.46L762.43 308.41L763.31 310.5L763.72 311.57L764.32 313.84L764.59 314.98L764.89 317.33L765.01 318.5L764.99 320.83L764.94 321.99L764.58 324.21L763.64 327.33L763.38 327.94L762.63 329.2L762.21 329.84L761.18 331.13L760.08 332.42L757.26 334.91L755.77 336.11L752.45 338.19L747.35 340.49L746.2 340.88L743.69 341.46L742.35 341.72L739.08 342.11L738.19 342.19L736.17 342.34L735.12 342.41L732.72 342.53L731.46 342.59L728.61 342.68L723.75 342.81L706 343.19V258.82M805.76 300.75L805.5 342.5L799.75 342.8L794 343.1V259H806.02M841.42 259.09L842.11 259.17L843.11 259.52L843.57 259.74L844.31 260.5L845.48 262.25L845.62 262.47L846.1 263.26L846.38 263.71L847.13 264.89L847.53 265.53L848.51 267.06L849.02 267.87L850.19 269.69L851.4 271.57L854.23 275.95L858.82 283L860.39 285.41L863.66 290.42L865.28 292.91L868.39 297.68L869.14 298.83L870.55 300.98L871.23 302.03L872.47 303.94L873.07 304.86L874.1 306.44L875.37 308.38L880.5 316.27L880.77 287.63L881.03 259H893V343H883.96L878.32 334.25L877.55 333.05L875.65 330.1L874.66 328.57L872.53 325.28L871.46 323.63L869.35 320.38L866.5 316L865.65 314.69L863.53 311.45L862.42 309.75L860.02 306.07L858.81 304.22L856.42 300.54L853.15 295.54L846 284.58V343H834V259H839.87M634.89 306.95L650.62 287.22L652.78 284.51L657 279.23L658.02 277.94L659.98 275.49L660.94 274.28L662.73 272.05L663.59 270.96L665.15 269L665.9 268.07L667.18 266.46L667.79 265.7L668.74 264.51L669.74 263.25L670.51 262.29L671.7 260.96L672.26 260.38L673.3 259.68L673.84 259.39L675.08 259.12L677.57 259H682V343H671L670.89 316.75L670.88 314.72L670.86 311.01V309.22L670.84 305.98L670.83 304.41L670.82 301.59L670.81 300.24L670.79 297.82L670.78 296.66L670.75 294.61L670.74 293.63L670.71 291.92L670.7 291.11L670.66 289.71L670.65 289.04L670.6 287.92L670.56 286.86L670.44 285.44L670.38 284.82L670.22 284.12L670.13 283.83L669.91 283.59L669.51 283.5H669.44L669.06 283.81L668.84 284.01L668.18 284.68L667.82 285.06L666.91 286.07L666.43 286.61L665.3 287.91L664.72 288.59L663.42 290.13L662.75 290.93L661.3 292.68L656.59 298.5L655.33 300.09L653.02 303L651.9 304.41L649.87 306.96L648.88 308.2L647.12 310.42L646.26 311.49L644.74 313.4L644 314.32L642.7 315.95L642.08 316.73L640.98 318.09L640.46 318.74L639.55 319.87L639.12 320.4L638.38 321.31L637.68 322.17L636.7 323.34L636.27 323.84L635.72 324.44L635.48 324.69L635.21 324.9L634.94 325H634.9L634.62 324.73L634.44 324.55L633.9 323.96L633.6 323.63L632.84 322.75L632.44 322.27L631.48 321.14L630.48 319.95L628.04 316.97L623.94 311.87L622.51 310.06L619.34 306.09L617.73 304.08L614.51 300.07L612.93 298.1L610.04 294.51L609.36 293.66L608.12 292.13L606.5 290.14L599.5 281.54L598.97 343H592.19L589.7 342.8L589.16 342.74L588.35 342.59L588 342.51L587.67 342.33L587.64 342.31L587.6 342.05L587.58 341.89L587.53 341.36L587.49 340.76L587.41 338.81L587.37 337.72L587.29 334.88L587.26 333.35L587.2 329.72L587.17 327.82L587.11 323.52L587.09 321.29L587.05 316.43L587.04 313.95L587.01 308.65L587 300.33V259H596.65M374.25 259.24L375.64 259.27L378.21 259.34L379.46 259.37L381.77 259.45L384.01 259.54L387.8 259.77L389.6 259.9L392.61 260.26L394.04 260.45L396.45 260.97L397.59 261.25L399.57 261.98L400.52 262.37L402.24 263.35L403.08 263.87L404.71 265.14L407.25 267.41L408.51 268.62L410.56 271.33L411.5 272.73L412.92 275.74L413.56 277.27L414.35 280.47L414.67 282.08L414.83 285.36L414.84 287L414.37 290.24L414.06 291.85L412.97 294.95L412.35 296.47L410.63 299.32L407.34 303.2L405.88 304.58L402.85 306.66L402.05 307.13L400.35 307.93L399.47 308.31L397.55 308.93L396.56 309.22L394.35 309.69L393.2 309.9L390.64 310.23L389.3 310.39L386.31 310.6L381.27 310.82L368.05 311.2L367.77 326.85L367.5 342.5L361.96 342.79L360.44 342.87L357.84 342.79L357.27 342.75L356.42 342.63L356.06 342.56L355.71 342.38L355.69 342.35L355.64 342.09L355.61 341.92L355.57 341.39L355.52 340.79L355.43 338.83L355.39 337.74L355.31 334.88L355.28 333.35L355.21 329.71L355.18 327.8L355.12 323.48L355.1 321.25L355.06 316.38L355.04 313.89L355.01 308.58L355 300.24V258.82M517 290.97V294.24V295.83L517.01 298.72V300.12L517.02 302.65L517.03 303.87L517.05 306.08L517.06 307.14L517.09 309.05L517.1 309.97L517.14 311.6L517.18 313.18L517.3 315.64L517.37 316.77L517.56 318.53L517.66 319.33L517.93 320.6L519.1 323.71L519.46 324.46L520.23 325.76L520.63 326.38L521.49 327.44L521.94 327.94L522.94 328.78L523.46 329.18L524.63 329.82L525.24 330.12L526.63 330.58L527.35 330.79L528.99 331.09L529.85 331.23L531.78 331.38L535.04 331.48H536.17L538.17 331.4L539.12 331.35L540.81 331.14L541.61 331.01L543.03 330.65L543.7 330.44L544.89 329.9L545.46 329.61L546.46 328.86L546.94 328.47L547.8 327.5L548.22 326.99L548.98 325.78L550.06 323.67L550.49 322.72L551.09 320.56L551.21 319.94L551.42 318.37L551.51 317.52L551.66 315.36L551.72 314.19L551.82 311.24L551.84 310.44L551.87 308.67L551.89 307.75L551.91 305.71L551.92 304.65L551.94 302.32L551.95 301.12L551.96 298.48L551.97 297.11V294.13L551.98 289.25L552 259H564V291.98V295.84L563.99 297.72L563.98 301.13L563.97 302.78L563.94 305.77L563.92 307.22L563.87 309.84L563.84 311.11L563.76 313.38L563.72 314.48L563.61 316.45L563.5 318.35L563.15 321.38L562.96 322.79L562.43 325.06L562.14 326.13L561.39 327.92L560.98 328.78L559.97 330.37L558.11 332.87L557.24 333.96L555 335.94L553.81 336.89L551 338.55L549.54 339.33L546.28 340.6L541.01 342L539.52 342.28L537.18 342.63L536.08 342.77L534.15 342.84H533.18L531.13 342.62L530.03 342.47L527.34 341.96L526.21 341.74L524.03 341.1L522.96 340.75L520.89 339.87L519.88 339.41L517.95 338.3L517 337.73L515.23 336.41L514.36 335.73L512.75 334.21L511.97 333.43L510.55 331.73L509.87 330.86L508.65 328.99L507.08 326L506.6 324.95L505.96 322.75L505.82 322.12L505.6 320.55L505.5 319.7L505.34 317.52L505.28 316.33L505.18 313.31L505.16 312.49L505.12 310.66L505.11 309.71L505.08 307.59L505.07 306.49L505.06 304.05L505.05 302.79L505.04 300.01L505.03 298.58V295.43L505.02 290.25L505 259H517M442 331.96L489.5 332.5V342.5L460.43 342.76L458.43 342.78L454.58 342.8L452.68 342.81H449.09H447.34L444.09 342.8L442.52 342.79L439.7 342.75L438.35 342.73L436.04 342.68L434.96 342.66L433.24 342.59L432.46 342.56L431.41 342.48L430.98 342.44L430.68 342.35L430.66 342.32L430.61 342.06L430.59 341.9L430.54 341.37L430.5 340.77L430.42 338.82L430.38 337.73L430.3 334.88L430.26 333.36L430.2 329.73L430.17 327.82L430.12 323.52L430.09 321.29L430.05 316.44L430.04 313.95L430.01 308.65L430 300.33V259H442M939.77 259.15L941.22 259.21L944.08 259.55L945.5 259.76L948.22 260.38L949.56 260.72L952.07 261.61L953.29 262.08L955.51 263.22L958.43 265.2L958.84 265.54L959.74 266.47L960.2 266.97L961.16 268.14L962.12 269.35L963.95 272.14L964.82 273.53L966.12 276.11L966.4 276.71L966.77 277.75L967 278.97V279.12L966.55 279.38L966.26 279.5L965.31 279.71L964.78 279.8L963.43 279.92L961.06 280H960.36L959.19 279.99L958.64 279.98L957.73 279.93L956.87 279.86L955.72 279.54L955.21 279.34L954.45 278.62L953.31 276.9L952.65 275.78L950.84 273.93L949.85 273.08L947.4 271.77L946.1 271.19L943.08 270.45L937.94 270H936.91L935.03 270.1L934.11 270.17L932.45 270.42L930.84 270.71L928.22 271.75L927 272.35L925.09 274.05L922.9 277.42L922.5 278.3L921.93 280.22L921.81 280.75L921.61 281.98L921.51 282.63L921.37 284.19L921.3 285.03L921.2 287.02L921.16 288.08L921.1 290.62L921.07 291.97L921.04 295.16L921.02 300.78V302.16L921.03 304.69V305.92L921.05 308.17L921.08 310.35L921.19 313.97L921.27 315.67L921.51 318.43L921.65 319.72L922.05 321.79L922.28 322.75L922.88 324.29L923.21 325.01L924.05 326.18L924.5 326.74L925.61 327.7L927.64 329.1L928.29 329.51L929.88 330.18L930.7 330.49L932.54 330.97L934.43 331.4L938.53 331.67L940.56 331.7L944.33 331.16L945.21 330.98L946.76 330.46L948.68 329.44L949.61 328.76L951.39 326.67L952.25 325.54L953.73 322.87L954.42 321.51L955.38 318.69L956 314.79V311H939V301H968V311.87L967.89 314.48L967.82 315.75L967.57 318.12L967.42 319.27L967.01 321.42L966.78 322.47L966.21 324.42L965.59 326.32L963.82 329.67L960.29 334.19L959.49 335.01L957.63 336.5L956.66 337.21L954.5 338.47L953.39 339.07L950.99 340.09L949.77 340.57L947.2 341.33L945.9 341.67L943.22 342.16L941.87 342.37L939.15 342.56L937.79 342.61L935.08 342.5L933.74 342.4L931.11 341.95L929.91 341.71L927.62 341.06L926.49 340.71L924.38 339.86L923.34 339.41L921.4 338.36L920.46 337.81L918.71 336.58L917.86 335.94L916.31 334.52L915.56 333.79L914.22 332.19L913.57 331.38L912.44 329.61L911 326.79L910.51 325.65L909.84 323.53L909.7 322.96L909.47 321.68L909.36 321L909.21 319.39L909.14 318.52L909.05 316.42L909.01 315.29L908.97 312.54L908.95 311.07L908.94 307.53L908.96 301.16L908.97 298.32L909.08 292.83L909.15 290.16L909.34 285.4L909.4 284.28L909.51 282.28L909.57 281.32L909.7 279.69L909.77 278.93L909.91 277.73L910.13 276.51L910.33 275.75L911.03 274.18L911.43 273.39L912.47 271.77L913.58 270.16L916.55 267.07L918.12 265.58L921.62 263.11L922.51 262.55L924.3 261.63L926.93 260.61L928.27 260.21L931.08 259.66L932.5 259.42L935.4 259.18L936.85 259.09M718 332.24L730.25 331.81L731.35 331.77L733.35 331.68L734.32 331.63L736.06 331.52L737.74 331.4L740.41 331.09L741.64 330.92L743.53 330.5L744.4 330.27L745.66 329.71L746.55 329.24L748.09 328.15L748.83 327.58L750.05 326.32L750.63 325.67L751.53 324.26L751.93 323.54L752.5 322.03L752.73 321.26L752.95 319.67L753.01 318.87L752.87 317.23L752.75 316.41L752.24 314.76L751.05 312.31L750.4 311.25L748.66 309.66L748.16 309.3L746.98 308.69L746.35 308.4L744.84 307.92L744.04 307.69L742.15 307.32L741.15 307.14L738.8 306.86L737.57 306.73L734.7 306.52L729.75 306.27L718 305.79M368 270V301.22L378.75 300.81L380.79 300.74L384.1 300.52L385.65 300.39L388.19 300.04L389.38 299.84L391.41 299.32L392.39 299.04L394.17 298.3L395.72 297.6L398.08 296.03L399.16 295.2L400.66 293.25L401.31 292.2L402.06 289.66L402.47 285L402.46 283.59L402.16 281.12L401.96 279.94L401.25 277.9L400.83 276.93L399.65 275.3L398.99 274.53L397.3 273.27L396.38 272.69L394.13 271.77L392.92 271.36L390.06 270.76L388.55 270.5L385.04 270.18L378.98 270M718 270V296.28L729.25 295.76L731.07 295.67L734.36 295.42L735.94 295.28L738.71 294.93L740.02 294.74L742.2 294.28L743.22 294.05L744.77 293.5L746.19 292.92L748.46 291.55L749.5 290.83L751.02 289.12L751.7 288.22L752.52 286.13L753 282.5V281.37L752.68 279.38L752.46 278.42L751.67 276.75L751.22 275.95L749.94 274.59L749.24 273.94L747.44 272.87L746.47 272.37L744.12 271.58L742.88 271.22L739.95 270.69L738.4 270.45L734.86 270.17L728.82 270M3.66031 259.06L2.82031 263.26L3.66031 259.05L3.82031 258.45M46.4303 169.89L40.4603 178.22L37.6303 182.55L32.1003 191.29L29.5303 195.76L24.5203 204.75L24.5403 204.7L29.5703 195.68L32.1503 191.2L37.6803 182.47L40.5003 178.15L46.4603 169.84L48.2303 167.6M95.2203 119.6L94.2903 122.04L93.3903 124.52L92.9903 125.84L92.2203 128.54L91.8603 129.99L89.9003 139.29L89.0103 145.13L88.7703 147.88L88.4303 153.26L88.4703 155.78L88.6903 160.71L89.0003 163L89.4203 166.38L89.6203 168.22L89.6703 168.93L89.7503 170.2V170.61L89.7303 171.3L89.6903 171.41L89.5703 171.49L89.4803 171.29L89.2703 170.73L89.1403 170.21L88.8603 169L88.7003 168.15L88.3503 166.27L88.1503 165.07L87.2403 156.37L87.1703 150.52L87.4003 147.55L88.0503 141.55L88.6403 138.47L90.0103 132.24L90.9703 129.01L91.7003 126.3L91.8703 125.56L91.9203 125.29L92.0003 124.81V124.69L91.7203 124.44L91.2503 124.55L90.9003 124.73L90.1103 125.19L89.6803 125.49L90.0803 125.16L90.9703 124.39L92.5003 122.86L93.2203 122.09L94.4103 120.57L95.8303 118.3L96.5903 116.81L97.6303 115.05M60.5503 152.66L59.5703 153.74L60.4803 152.74L60.6903 152.51M84.3103 129.73L83.4803 130.45L79.9803 133.53L78.0703 135.29L74.1503 138.94L72.1403 140.89L68.1103 144.83L66.1503 146.82L63.0003 150.06L63.1903 149.86L65.9503 146.95L71.8803 141.06L73.3603 139.62L76.2503 136.88L77.6803 135.55L80.3803 133.1L81.7003 131.93L84.0803 129.91L84.4503 129.62M98.6203 113.41L99.1703 112.52L99.7403 111.71M102.59 107.8L101.27 109.54L102.33 108.1L102.91 107.38M104.64 105.25L104.94 104.88L105.14 104.65L104.64 105.25Z" fill="black"/>
<path d="M92.7004 414.9L93.7704 415.39L95.7304 416.27L96.4104 416.54L97.0304 416.79L97.2504 416.86L97.6204 416.97H97.7104L98.0004 416.64L97.8404 417H97.7204L97.2904 416.88L97.0404 416.8L96.3504 416.54L95.6104 416.25L93.5104 415.29L92.3804 414.76L91.5104 414.33M60.8504 396.68L66.0404 400.21L68.7504 401.91L73.2504 404.65L71.4704 403.62L68.0004 401.51L65.4504 399.88L60.5104 396.46L59.4904 395.73M23.3304 360.34L26.4104 364.43L28.0904 366.5L33.5004 372.78L32.2004 371.38L28.5604 367.14L26.7804 365L23.4504 360.64L21.8304 358.31M15.3604 348.16L17.7704 352.23L19.1004 354.26L21.8204 358.29L18.8404 354L17.0004 351.17L14.7504 347.09M12.0904 341.99L13.9604 345.66L13.7004 345.18L12.1104 342.12L11.6904 341.17M7.99042 332.48L7.97041 332.41L7.92041 332.26M105.59 320.05L105.6 320.01L106.37 318.6M107.72 316.12L107.86 315.87L109.47 313.04M66.9104 308.1L67.3404 306.5ZM142.89 268L139.3 271.83L132.58 279.71L129.29 283.68L123.21 291.75L120.26 295.81L114.87 304L112.35 307.97L112.57 307.58L115.2 303.45L120.64 295.21L123.61 291.15L129.72 283.08L133.01 279.13L139.74 271.32L143.32 267.54L143.34 267.52M84.6204 270.26L85.2104 269.37L85.3604 269.17M104.85 247.19L101.94 249.96L100.39 251.5L94.4704 257.73L90.7704 262.03L89.0404 264.25L86.8604 267.14L88.4804 264.94L90.1504 262.76L93.6904 258.55L99.3004 252.52L100.67 251.15L103.35 248.57L104.68 247.31L105.9 246.21M87.8604 162.28L87.6904 161.22L87.5104 159.26L87.4504 158.34M87.5004 146.66L87.8004 143.53L87.9204 142.72M88.6404 138.47L88.6104 138.64L88.8204 137.45L89.2904 135.37L89.5704 134.22M92.2204 181.04L92.1704 180.6L92.0204 179.66L91.8804 179.09L91.5704 177.9L91.3604 177.25L89.6704 171.42L89.6904 171.41L89.7304 171.3L89.7504 170.61V170.2L89.6704 168.93L89.6204 168.22L89.4204 166.38L89.0004 163L88.6904 160.71L88.4704 155.78L88.4304 153.26L88.7704 147.88L89.0104 145.13L89.9004 139.29L91.8604 129.99L92.2204 128.54L92.9904 125.84L93.3904 124.52L94.2904 122.04L95.2204 119.6L97.6704 114.99L98.3404 113.83L99.9004 111.47L100.72 110.28L102.59 107.8L103.57 106.53L105.82 103.83L109.66 99.45L110.57 98.44L112.13 96.78L112.87 96.01L114.1 94.84L114.68 94.32L115.61 93.63L116.04 93.34L116.7 93.13L116.99 93.08L117.4 93.35L117.57 93.53L117.75 94.26L117.82 94.69L117.8 95.88L117.57 98.19L117.32 100.1L117.02 104.15L116.9 106.21L116.87 110.52L116.88 112.7L117.1 117.18L117.24 119.43L117.7 123.98L118.23 128.54L119.96 137.5L120.44 139.7L121.58 143.95L123.5 150L124.8 153.63L127.83 160.7L129.41 164.2L133.03 171.02L134.92 174.4L139.15 181L141.35 184.27L146.22 190.68L148.74 193.86L154.27 200.1L157.12 203.21L163.33 209.32L166.52 212.36L173.44 218.35L184.62 227.26L188.77 230.39L196.59 236.97L200.42 240.3L207.55 247.24L211.03 250.74L217.42 257.95L220.52 261.59L226.11 269.01L228.81 272.74L233.56 280.31L235.83 284.1L239.68 291.72L241.49 295.54L244.4 303.16L247.63 314.5L247.86 315.56L248.28 318.11L248.48 319.44L248.82 322.4L249.15 325.43L249.55 332.01L249.63 333.64L249.71 336.83L249.74 338.39L249.72 341.31L249.7 342.73L249.57 345.22L249.24 348.28L249.08 349.28L248.89 350.86L248.81 351.58V352.59L248.83 353.03L249.02 353.48L249.14 353.63L249.53 353.51L249.74 353.38L250.33 352.69L250.65 352.27L251.45 351.01L251.88 350.3L252.89 348.46L254.65 345.04L255.53 343.28L257.09 339.89L257.83 338.21L259.14 334.92L260.39 331.65L262.2 325.1L263 321.78L264.02 314.76L264.23 312.95L264.53 309.14L264.81 303.08L264.88 300.59L264.84 295.88L264.79 293.56L264.51 289.11L264.34 286.91L263.8 282.64L263.49 280.52L262.67 276.34L262.22 274.25L261.1 270.08L260.5 267.98L259.06 263.73L258.29 261.58L256.51 257.15L253.45 250.23L252.27 247.7L249.86 242.93L248.64 240.58L246.07 236.04L244.76 233.8L241.94 229.38L240.49 227.18L237.33 222.75L235.69 220.52L232.1 215.95L230.23 213.64L226.1 208.8L223.96 206.34L219.2 201.11L211.26 192.68L208.43 189.73L203.28 184.25L200.78 181.56L196.21 176.52L193.99 174.04L189.92 169.33L187.94 167L184.28 162.5L182.49 160.26L179.15 155.87L177.51 153.67L174.39 149.27L165.46 135.48L164.24 133.48L161.87 129.24L160.7 127.08L158.43 122.59L156.2 118.05L152.2 108.62L151.25 106.26L149.52 101.56L148.68 99.23L147.2 94.65L146.49 92.38L145.29 88L143.86 81.75L143.65 80.69L143.31 77.88L143.15 76.38L142.92 72.91L142.81 71.12L142.69 67.25L142.64 65.29L142.61 61.27L142.62 59.27L142.7 55.37L142.76 53.46L142.95 49.93L143.05 48.24L143.35 45.35L143.91 42L144.69 38.79L146.98 32.47L148.22 29.36L151.27 23.51L152.06 22.1L153.76 19.42L154.63 18.11L156.44 15.69L157.36 14.51L159.26 12.39L162.18 9.58L162.76 9.08L164.17 8.02L164.91 7.48L166.56 6.39L168.24 5.31L171.84 3.28999L172.73 2.81L174.43 1.98L175.27 1.58L176.78 0.929993L177.5 0.639999L178.73 0.25L180.12 0H180.53L181.05 0.100006L181.27 0.190002L181.42 0.589996L181.45 0.839996L181.26 1.72L180.59 3.75L180.12 5.09L179.29 8.31L178.9 10L178.25 13.8L177.94 15.75L177.46 19.97L177.24 22.11L176.95 26.57L176.71 31.07L176.81 40.13L176.89 42.34L177.21 46.59L177.94 52.5L178.27 54.56L179.13 58.73L179.6 60.82L180.73 65.06L181.93 69.32L185.09 77.97L186.79 82.31L190.9 91.06L193.07 95.43L198.06 104.15L200.67 108.49L206.48 117.08L209.49 121.34L216.05 129.67L219.42 133.79L226.67 141.75L238.23 153.16L240.01 154.8L243.36 157.91L245 159.44L248.07 162.36L249.58 163.79L252.39 166.53L253.77 167.88L256.34 170.47L258.86 173.03L263.26 177.79L265.37 180.13L269.07 184.6L270.84 186.81L273.98 191.19L275.5 193.38L278.24 197.84L279.57 200.1L282.07 204.85L285.7 212.5L287.02 215.47L289.36 221.33L290.48 224.26L292.42 230.1L293.34 233.02L294.88 238.9L295.6 241.85L296.76 247.84L297.3 250.86L298.09 257.02L298.44 260.13L298.87 266.54L299.04 269.78L299.13 276.5L298.89 287L298.65 292.19L297.48 302.55L296.79 307.71L294.73 317.9L293.6 322.97L290.7 332.89L289.16 337.81L285.48 347.33L283.54 352.04L279.12 361.05L276.82 365.48L271.71 373.87L269.07 377.97L263.32 385.6L261.84 387.46L258.78 391.01L254.02 396.07L251.43 398.68L246.42 403.12L243.93 405.22L238.97 408.74L236.48 410.41L231.38 413.15L223.32 416.55L221.74 417.11L218.73 417.97L217.28 418.35L214.79 418.81L214.22 418.9L213.23 419L212.77 419.03L212.04 419.01L211.71 418.99L211.27 418.84L211.09 418.75L211 418.48V418.4L211.27 417.87L211.45 417.55L212.02 416.62L212.34 416.12L213.12 414.9L214.47 412.9L215.55 411.34L217.16 408.51L217.89 407.09L218.93 404.16L219.39 402.63L220.02 399.03L220.16 398.06L220.4 395.9L220.7 392.27L220.86 389.98L220.82 385.29L220.73 382.93L220.2 378.07L219.87 375.62L218.83 370.58L218.25 368.04L216.7 362.79L215.87 360.13L213.81 354.66L212.72 351.89L210.14 346.17L208.78 343.27L205.68 337.28L200.43 327.96L199.07 325.67L195.96 320.76L194.35 318.26L190.81 313.04L189 310.4L185.14 305L183.17 302.29L179.08 296.84L174.95 291.4L166.44 280.94L164.33 278.4L160.16 273.6L154.1 266.94L149.01 261.54L149.91 260.59L137.7 248.21L132.82 243.33L129.81 240.39L128.54 239.18L127.31 238.01L126.77 237.51L125.75 236.57L125.33 236.2L124.55 235.51L124.27 235.28L123.77 234.9L123.64 234.83L122.38 234.62L121.3 234.82L120.63 235.09L119.59 235.56L119.79 235.44L120.53 235.05L121.72 234.6L123 234.5L123.24 234.58L123.32 234.34L123.31 234.16L122.93 233.48L122.68 233.1L121.89 232.08L120.32 230.27L119.49 229.37L117.67 227.19L116.74 226.04L114.78 223.43L113.79 222.09L111.75 219.16L110.72 217.67L108.67 214.53L106.63 211.36L102.78 204.8L101.86 203.18L100.16 200.01L97.8904 195.47L97.2204 194.04L95.9904 191.32L95.4104 190L94.4404 187.69L93.9904 186.61L93.3904 184.97L93.2604 184.61L93.1004 184.07L93.0004 183.55V183.12L92.7104 182.45L92.0004 182H91.9504L92.2004 181.63M91.6904 182H91.7204L91.2904 182.41L91.0004 183.38L91.2804 182.41L91.6904 182Z" fill="#005D99"/>
<path d="M85.9902 411.62L82.9502 410.08L77.1302 406.88L74.2502 405.27L68.7502 401.91L66.0402 400.21L60.8502 396.68L58.2902 394.89L53.4102 391.19L51.0002 389.32L46.4202 385.44L44.1702 383.47L39.8802 379.41L37.7702 377.35L33.7702 373.1L28.0902 366.5L26.4102 364.43L23.3302 360.34L21.8302 358.31L19.1002 354.26L17.7702 352.23L15.3602 348.16L14.2002 346.12L12.0902 341.99L11.0702 339.9L9.24019 335.64L8.36018 333.49L6.77019 329.06L6.01018 326.81L4.64018 322.15L2.82019 314.84L2.42018 313.05L1.77019 309.18L1.48018 307.2L1.03018 303.01L0.830185 300.89L0.580185 296.48L0.480179 294.26L0.430176 289.73V285.18L1.02019 276.11L1.22018 273.88L1.77019 269.54L2.82019 263.3L3.66019 259.06L5.98018 250.27L7.23018 245.85L10.3302 236.8L11.9702 232.26L15.7702 223.09L17.7602 218.51L22.2002 209.35L24.5002 204.78L29.5302 195.76L32.1002 191.29L37.6302 182.55L40.4602 178.22L46.4302 169.89L55.8102 158L57.1902 156.35L60.5502 152.66L62.3002 150.77L66.1502 146.82L68.1102 144.83L72.1402 140.89L74.1502 138.94L78.0702 135.29L79.9802 133.53L83.4802 130.45L84.3102 129.73L85.8402 128.45L86.5802 127.84L87.9102 126.79L88.5402 126.31L89.6102 125.54L90.1102 125.19L90.9002 124.73L91.2502 124.55L91.7202 124.44L92.0002 124.69V124.81L91.9202 125.29L91.8702 125.56L91.7002 126.3L90.9702 129.01L90.3302 131.17L89.2902 135.37L88.8202 137.45L88.1102 141.51L87.8002 143.53L87.4202 147.5L87.2702 149.48L87.2202 153.4L87.2402 155.35L87.5102 159.26L87.6902 161.22L88.3002 165.15L88.6502 167.12L89.5802 171.13L91.3602 177.25L91.5702 177.9L91.8802 179.09L92.0202 179.66L92.1702 180.6L92.2202 181.04L92.2002 181.63L91.9502 182H91.6902L91.2802 182.41L91.0002 183.38V183.58L90.7902 184.06L90.6602 184.31L90.2302 184.87L88.3702 186.49L87.8002 186.87L86.3002 188.09L85.5002 188.76L83.6202 190.5L82.6502 191.43L80.5002 193.57L79.4102 194.68L77.1002 197.12L74.7702 199.61L70.0702 204.99L68.9302 206.33L66.7702 208.96L63.8302 212.73L62.0902 215.05L58.7802 220.01L57.1702 222.53L54.1302 227.86L52.6502 230.56L49.9102 236.17L48.5802 239.01L46.1702 244.83L45.0102 247.76L42.9602 253.7L41.9902 256.68L40.3302 262.67L39.5602 265.66L38.3302 271.61L37.0002 280.41L36.6302 283.7L36.3102 290.06L36.2202 293.21L36.4702 299.3L36.6602 302.3L37.4702 308.11L37.9502 310.98L39.3302 316.52L40.0902 319.26L42.0302 324.54L43.0802 327.14L45.5902 332.16L46.9202 334.63L50.0102 339.39L55.2802 346.25L56.0802 347.18L57.4602 348.7L58.1202 349.4L59.2302 350.47L59.7602 350.94L60.6302 351.55L61.0302 351.8L61.6602 351.95L61.9502 351.97L62.3602 351.67L62.5502 351.46L62.7602 350.7L62.8402 350.27L62.8702 349.07L62.7202 346.75L62.6202 345.68L62.5302 343.1L62.5002 341.75L62.5702 338.72L62.6202 337.17L62.8302 333.83L62.9502 332.14L63.2902 328.63L63.6502 325.12L64.7002 318.21L64.9802 316.54L65.6002 313.41L66.6202 309.17L67.3702 306.41L69.1202 301.02L70.0402 298.35L72.1202 293.13L73.2002 290.55L75.6202 285.5L76.8602 283.01L79.6002 278.14L81.0102 275.73L84.0802 271.06L85.6502 268.74L89.0402 264.25L90.7702 262.03L94.4702 257.73L100.39 251.5L101.94 249.96L104.85 247.19L106.27 245.86L108.9 243.5L110.17 242.37L112.51 240.43L113.64 239.51L115.68 238L116.66 237.3L118.39 236.22L119.22 235.73L120.63 235.09L121.3 234.82L122.38 234.62L123.64 234.83L123.77 234.9L124.27 235.28L124.55 235.51L125.33 236.2L125.75 236.57L126.77 237.51L127.31 238.01L128.54 239.18L129.81 240.39L132.82 243.33L137.7 248.21L149.91 260.59L143.32 267.54L139.74 271.32L133.01 279.13L129.72 283.08L123.61 291.15L120.64 295.21L115.2 303.45L112.57 307.58L107.86 315.87L105.6 320.01L101.68 328.26L99.8202 332.37L96.7402 340.48L95.3102 344.5L93.1202 352.36L90.9002 363.75L90.7402 365.01L90.5002 367.82L90.3902 369.27L90.2702 372.36L90.1902 375.5L90.3502 382.07L90.4202 383.69L90.6402 386.85L90.7602 388.4L91.0702 391.31L91.2402 392.72L91.6502 395.26L92.3702 398.5L92.5602 399.19L93.1102 400.97L93.4102 401.91L94.1102 404.01L96.3302 410.25L96.7602 411.37L97.3802 413.19L97.6502 414.04L97.9602 415.3L98.0802 415.86L98.0702 416.56L97.7102 416.97H97.6202L97.2502 416.86L97.0302 416.79L96.4102 416.54L95.7302 416.27L93.7702 415.39L92.7002 414.9L90.1602 413.69L88.8502 413.05M355.46 237.75L355.44 237.71L355.41 237.23L355.4 236.93L355.37 235.96L355.36 235.41L355.33 233.97L355.32 233.19L355.3 231.31L355.28 230.31L355.26 228.01L355.25 226.81L355.24 224.11L355.23 222.72L355.22 219.66L355.21 218.09L355.2 214.69L355.19 212.95V209.24L355.18 207.35V203.35V199.29V190.41V185.87L355.2 176.19L355.24 161L355.5 85.4999L374.23 85.2299L392.97 84.9599L393.23 112.51L393.5 140.06L413 126.84L414.34 125.93L417.34 123.89L418.89 122.84L422.22 120.58L425.61 118.27L432.92 113.3L436.58 110.81L443.76 105.91L445.5 104.72L448.82 102.46L453.41 99.3099L474.33 84.9999H502.3H504.01H507.12H508.62L511.34 85.0099H512.65L515.01 85.0199H516.14L518.15 85.0299L519.12 85.0399L520.81 85.0599L521.62 85.0799L523.02 85.1099L524.35 85.1399L526.21 85.2499L527.03 85.2999L528.02 85.4699L528.42 85.5599L528.71 85.7899L528.79 85.9199L528.58 86.2399L527.88 86.8299L527.72 86.9599L527.03 87.4599L526.63 87.7399L525.5 88.5299L524.89 88.9599L523.38 89.9999L522.59 90.5499L520.77 91.7999L519.82 92.4499L517.73 93.8799L516.66 94.6099L514.37 96.1699L507 101.17L505.73 102.03L502.94 103.91L501.51 104.88L498.48 106.93L495.4 109L488.94 113.37L485.72 115.55L479.56 119.71L478.07 120.72L475.29 122.6L471.5 125.17L470.33 125.96L467.73 127.72L466.39 128.62L463.52 130.56L460.6 132.54L454.35 136.75L451.23 138.86L445.14 142.97L443.66 143.96L440.86 145.85L437 148.45L434.59 150.07L430.06 153.16L428.97 153.91L426.93 155.32L425.93 156L424.12 157.27L423.24 157.88L421.71 158.96L420.99 159.48L419.79 160.34L419.24 160.74L418.43 161.35L417.72 161.93L417.5 162.13L417.22 162.51L417.11 162.7L417.1 163.13L417.14 163.36L417.51 163.92L417.76 164.23L418.6 165.01L419.1 165.44L420.52 166.53L421.31 167.13L423.41 168.61L424.55 169.41L427.43 171.38L428.2 171.91L429.9 173.07L432.72 174.97L435.1 176.58L439.63 179.64L441.85 181.14L446.05 183.98L448.11 185.37L452 188.01L453.91 189.3L457.52 191.74L459.28 192.93L462.62 195.19L464.25 196.29L467.32 198.37L468.83 199.39L471.67 201.31L473.06 202.25L475.67 204.02L478.24 205.76L482.76 208.83L484.94 210.31L488.8 212.92L490.66 214.18L493.98 216.44L498.5 219.52L500.15 220.65L503.82 223.15L505.68 224.41L509.43 226.96L511.27 228.21L514.66 230.51L515.47 231.06L516.93 232.05L518.86 233.35L527.21 239H499.03H470.84L459.67 231.34L458.9 230.81L457.11 229.59L456.18 228.95L454.11 227.54L451.99 226.09L447.23 222.85L444.81 221.2L439.9 217.86L433 213.18L430.87 211.74L426.07 208.49L423.63 206.84L418.65 203.47L416.19 201.81L411.63 198.72L410.55 197.98L408.56 196.63L405.91 194.84L404.32 193.77L401.36 191.8L399.94 190.86L397.53 189.3L396.98 188.95L396.02 188.34L395.57 188.06L394.83 187.62L394.5 187.42L394.03 187.16L393.66 187H393.62L393.53 187.53L393.49 187.88L393.41 189.05L393.37 189.71L393.29 191.46L393.26 192.39L393.19 194.64L393.16 195.82L393.11 198.49L393.09 199.87L393.05 202.9L393 213V239H374.47H372.73L369.67 238.98L368.21 238.97L365.68 238.94L364.48 238.91L362.44 238.85L361.48 238.82L359.88 238.73L359.14 238.68L357.97 238.56L357.43 238.49L356.63 238.34L356.27 238.26L355.81 238.07L355.62 237.97M549 162V84.9999H562.68H576.37L585.43 93.7199L586.71 94.9399L589.76 97.8799L591.36 99.4199L594.98 102.91L596.86 104.71L600.95 108.66L603.05 110.68L607.53 115L609.8 117.19L614.56 121.78L616.97 124.1L621.92 128.88L637.01 143.45L638.87 145.24L642.65 148.89L644.52 150.69L648.02 154.05L648.86 154.85L650.41 156.34L651.17 157.06L652.51 158.35L653.15 158.96L654.24 160L655.51 161.21L660.5 165.92L665.5 161.3L665.84 160.98L667.09 159.81L667.79 159.14L669.69 157.33L670.71 156.36L673.18 154L674.47 152.76L677.4 149.94L678.92 148.48L682.24 145.29L683.93 143.66L687.54 140.18L699 129.11L702.92 125.31L710.74 117.75L712.66 115.89L716.37 112.3L718.2 110.53L721.64 107.2L723.32 105.58L726.4 102.6L727.88 101.17L730.49 98.6499L731.73 97.4499L733.76 95.4899L736.07 93.2599L744.63 84.9999H758.32H772V162V239H753.5H735V189.92V186.49L734.98 179.94L734.97 176.72L734.93 170.7L734.91 167.76L734.85 162.39L734.82 159.79L734.75 155.18L734.71 152.99L734.62 149.28L734.6 148.41L734.55 146.86L734.52 146.13L734.47 144.85L734.44 144.24L734.39 143.25L734.36 142.78L734.31 142.08L734.28 141.77L734.22 141.38L734.13 141.17L734.1 141.18L733.89 141.34L733.77 141.45L733.38 141.8L732.94 142.19L731.55 143.48L730.78 144.2L728.78 146.09L727.71 147.1L725.18 149.52L723.85 150.78L720.87 153.65L719.33 155.13L715.97 158.37L714.25 160.03L710.6 163.57L704.88 169.13L700.98 172.93L693.23 180.45L691.33 182.3L687.67 185.84L685.87 187.59L682.49 190.86L680.84 192.46L677.83 195.36L676.38 196.76L673.85 199.2L672.65 200.35L670.69 202.23L668.5 204.31L660.5 211.87L652.5 204.18L651.95 203.66L650.3 202.07L649.4 201.19L647.11 198.99L645.89 197.82L643.07 195.09L641.6 193.68L638.33 190.53L636.66 188.91L633.06 185.44L631.22 183.67L627.39 179.98L615.5 168.5L586.5 140.5L586.24 189.75L585.98 239H567.49H549V162ZM794.7 234.36L794.65 234.32L794.56 233.85L794.51 233.56L794.43 232.65L794.38 232.14L794.31 230.83L794.27 230.13L794.2 228.49L794.17 227.62L794.12 225.68L794.09 224.68L794.05 222.51L794 215.33V197H855.55H917.09L919.55 194.55L920.1 193.99L920.93 192.69L921.3 192.01L921.79 190.51L921.99 189.74L922.14 188.13L922.17 187.31L922 185.67L921.87 184.86L921.39 183.27L921.11 182.49L920.34 181.05L919.91 180.35L918.85 179.12L916.95 177.63L916.63 177.44L915.81 177.12L915.35 176.97L914.07 176.72L913.35 176.6L911.33 176.43L910.76 176.38L909.45 176.31L908.76 176.28L907.17 176.22L906.34 176.19L904.44 176.15L903.44 176.13L901.2 176.09L900.03 176.08L897.4 176.05L896.03 176.04L892.99 176.03L891.42 176.02L887.93 176.01H886.13H882.16H880.11L875.63 176.02L868.29 176.03L864.91 176.04H858.75L855.76 176.05L850.33 176.04L847.7 176.03L842.94 176L840.64 175.98L836.51 175.93L834.51 175.89L830.94 175.8L829.23 175.75L826.17 175.61L824.69 175.54L822.09 175.35L820.84 175.26L818.64 175.02L817.58 174.89L815.72 174.59L814.82 174.43L813.25 174.06L811.74 173.67L809.35 172.66L808.22 172.11L806.27 170.74L803.34 168.21L802.39 167.33L800.72 165.38L799.92 164.37L798.53 162.11L797.87 160.93L796.75 158.28L796.22 156.91L795.34 153.81L794.94 152.2L794.3 148.59L794 146.72L793.57 142.52L793.39 140.35L793.16 135.5L793.02 127.43V125.41L793.06 121.66L793.1 119.83L793.22 116.48L793.28 114.86L793.48 111.9L793.58 110.46L793.85 107.87L793.99 106.62L794.34 104.39L794.52 103.32L794.94 101.44L795.16 100.54L795.66 98.9899L796.5 97.0199L797.3 95.4799L799.24 92.8599L800.27 91.6199L802.74 89.5599L804.04 88.5899L807.14 87.0099L812.6 85.1099L812.74 85.0699L813.41 84.9899L813.81 84.9599L814.97 84.8799L815.61 84.8399L817.23 84.7699L818.1 84.7299L820.15 84.6499L821.22 84.6199L823.66 84.5399L824.93 84.4999L827.73 84.4299L829.17 84.3899L832.3 84.3199L833.9 84.2799L837.31 84.2099L840.79 84.1399L848.49 83.9999L852.44 83.9399L860.86 83.8099L865.14 83.7499L874.02 83.6399L878.5 83.5799L887.57 83.4899L892.1 83.4399L901.1 83.3599L905.56 83.3299L914.2 83.2699L918.46 83.2399L926.49 83.2099L930.4 83.1999L937.54 83.1899H939.26L942.48 83.1999L944.05 83.2099L946.96 83.2199L948.37 83.2299L950.93 83.2499L952.17 83.2599L954.35 83.2899L955.39 83.3099L957.15 83.3499L957.98 83.3699L959.29 83.4199L959.89 83.4399L960.73 83.4999L961.4 83.5999L961.74 83.7299L962.23 84.5399L962.34 84.8099L962.51 85.5999L962.59 86.0499L962.72 87.2399L962.78 87.8999L962.86 89.5799L962.9 90.4899L962.94 92.7499L962.97 93.9599L962.99 96.8799L963 102.11V104.57L962.98 109.07L962.97 110.15L962.96 112.13L962.95 113.09L962.93 114.81L962.92 115.63L962.89 117.03L962.88 117.69L962.85 118.72L962.83 119.19L962.8 119.81L962.75 120.22L962.74 120.23L962.42 120.24L962.21 120.25L961.49 120.27L961.09 120.28L960 120.31L959.42 120.32L957.98 120.35L957.22 120.36L955.46 120.39L954.54 120.4L952.47 120.43L951.4 120.45L949.03 120.48L947.82 120.5L945.19 120.53L942.5 120.56L936.39 120.64L933.23 120.67L926.32 120.75L922.78 120.78L915.21 120.86L903.32 120.97L899.73 121L893.18 121.06L890.01 121.09L884.27 121.15L881.49 121.17L876.49 121.23L874.08 121.25L869.77 121.31L867.7 121.34L864.02 121.39L862.26 121.42L859.17 121.49L857.69 121.52L855.13 121.59L853.9 121.62L851.81 121.7L850.81 121.74L849.13 121.84L848.34 121.88L847.01 121.99L846.39 122.04L845.37 122.17L844.9 122.23L844.13 122.37L843.41 122.52L842.49 122.88L841.43 123.53L840.44 124.27L839.08 125.71L838.5 126.43L837.93 127.97L837.75 128.77L837.93 130.58L839.01 133.78L839.45 134.77L840.23 136.38L840.63 137.13L841.69 138.32L842.29 138.87L844.08 139.69L844.6 139.88L845.85 140.2L846.52 140.35L848.11 140.6L848.96 140.72L850.96 140.91L852.01 141L854.47 141.14L855.77 141.2L858.75 141.3L860.31 141.34L863.86 141.4L865.72 141.43L869.91 141.46L872.09 141.48L876.97 141.49L879.51 141.5H885.14H894.5H941.5L947.5 143.97L949.66 144.86L953.47 147.15L955.29 148.37L958.41 151.32L959.88 152.87L962.3 156.46L965.1 162.56L965.66 164.17L966.42 166.9L966.58 167.6L966.84 169.08L966.96 169.86L967.14 171.62L967.22 172.55L967.33 174.77L967.38 175.95L967.44 178.79L967.46 180.31L967.49 183.95L967.5 190.5V192.7L967.48 196.5L967.47 198.31L967.43 201.43L967.4 202.91L967.32 205.44L967.28 206.65L967.16 208.7L967.09 209.68L966.92 211.38L966.83 212.19L966.6 213.62L965.66 217.47L965.11 219.25L963.38 222.63L962.42 224.27L960.04 227.19L958.79 228.57L955.97 230.8L951.5 233.11L951.1 233.24L949.62 233.47L949.18 233.53L948.09 233.63L947.51 233.68L946.12 233.78L945.38 233.82L943.65 233.91L942.74 233.95L940.64 234.03L939.55 234.07L937.06 234.14L935.76 234.17L932.85 234.23L931.34 234.27L927.97 234.32L926.23 234.35L922.38 234.4L920.4 234.43L916.04 234.48L913.79 234.5L908.89 234.54L906.37 234.56L900.91 234.6L898.1 234.62L892.03 234.65L888.92 234.67L882.23 234.7L871.45 234.75L866.22 234.77L856.15 234.8L851.21 234.81L841.86 234.82H837.3L828.88 234.8H826.84L822.98 234.79L821.09 234.78L817.53 234.76H815.79L812.56 234.73L810.99 234.72L808.12 234.7L806.73 234.69L804.24 234.66L803.05 234.64L800.97 234.61L799.98 234.59L798.34 234.56L797.57 234.54L796.39 234.5L795.86 234.48L795.16 234.43L794.88 234.41L794.7 234.36Z" fill="#D16303"/>
<path d="M94 121.5C81.7458 155.985 88.756 165.239 92.5 182.5L85.5 189L48.5 168C51.7298 160.98 75.3824 136.809 94 121.5Z" fill="#D16303"/>
<path d="M92.4997 182.5C82.5876 154.265 83.7333 135.287 98.8347 113.24L92.4997 182.5Z" fill="#005D99"/>
<path d="M144.082 213C115.663 182.085 108.158 161.729 107.082 121C101.258 131.979 98.4738 138.371 99.082 152.5C101.406 188.337 112.89 206.57 142.082 237.5C178.327 270.397 194.346 286.906 206.582 309C222.212 340.043 228.17 359.899 230.582 402.5C242.682 393.498 253.768 381.861 268.082 364C278.391 343.882 284.662 337.302 292.082 289.5L291.082 266C287.409 222.891 273.051 200.397 231.082 162.5L229.582 161C222.329 155.301 216.865 150.267 201.582 134C180.345 105.469 170.607 87.7216 165.082 46.5V26C161.704 30.2099 159.817 32.616 157.082 41C145.58 82.592 160.061 107.559 191.082 152.5L225.582 186.5C264.469 224.274 280.363 247.796 276.582 302.5C272.113 329.247 264.483 345.396 240.582 376.5C238.763 341.94 235.247 323.922 223.082 295C208.66 267.182 194.573 254.706 144.082 213Z" fill="url(#paint0_linear_104_15)"/>
<path d="M86.3836 158C-12.261 258.053 9.73554 337.866 79.383 392C72.1829 330.9 85.1988 298.274 136.884 246.5C131.666 241.445 128.206 238.393 122.884 232.5C81.3712 263.251 61.6041 290.791 61.8829 353C20.8964 312.369 27.8762 239.143 93.3836 184.5C90.5722 176.905 88.3461 170.458 86.3836 158Z" fill="url(#paint1_linear_104_15)" stroke="black" stroke-width="0.01"/>
<defs>
<linearGradient id="paint0_linear_104_15" x1="107.5" y1="103" x2="292" y2="303" gradientUnits="userSpaceOnUse">
<stop stop-color="#68B0E0"/>
<stop offset="1" stop-color="#135AAC"/>
</linearGradient>
<linearGradient id="paint1_linear_104_15" x1="20" y1="283.5" x2="137" y2="247" gradientUnits="userSpaceOnUse">
<stop stop-color="#E87D49"/>
<stop offset="1" stop-color="#FCC652"/>
</linearGradient>
</defs>
</svg>
